<svg id="Houses" xmlns="http://www.w3.org/2000/svg" width="273.198" height="215.864" viewBox="0 0 273.198 215.864">
  <path id="Path_108" data-name="Path 108" d="M241.308,80.957V40.048H221.573V80.957h-12.82V0H127.661V102.266q-14.007-26.243-28-52.5L0,215.864H273.2V80.957H241.3Zm-140.2,52.708Q90.978,147.34,80.834,161.028,74.245,152.52,67.657,144,83.971,117.535,100.3,91.083q13.288,21.279,26.563,42.57H101.11ZM155.245,27.08h27.031V54.43H155.245V27.08Zm0,40.318h27.031V94.749H155.245V67.4Zm0,40.663h27.031v27.351H155.245V108.061Zm90.3,68.137H218.509V148.835H245.54Zm0-40.7H218.509V108.135H245.54Z"/>
</svg>
