<svg id="Logo" xmlns="http://www.w3.org/2000/svg" width="580" height="109.695" viewBox="0 0 580 109.695">
  <path id="Path_63" data-name="Path 63" d="M14.89,44.529H57.441V5.95h14.89v98.637H57.441V58.531H14.89v46.055H0V5.95H14.89Z" transform="translate(0 3.317)" fill="#4b3d60"/>
  <path id="Path_64" data-name="Path 64" d="M161.806,0V107.9H147.43V0Z" transform="translate(82.193)" fill="#4b3d60"/>
  <path id="Path_65" data-name="Path 65" d="M166.95,16.022a8.914,8.914,0,0,1,2.741-6.51,8.977,8.977,0,0,1,6.573-2.741,9.177,9.177,0,0,1,6.65,2.741,8.819,8.819,0,0,1,2.741,6.573,9.126,9.126,0,0,1-2.741,6.651,8.819,8.819,0,0,1-6.573,2.741,9.36,9.36,0,0,1-9.392-9.454Zm16.541,25.87v62.222H169.115V41.907h14.376Z" transform="translate(93.076 3.774)" fill="#4b3d60"/>
  <path id="Path_66" data-name="Path 66" d="M236.182,0H250.62V107.9H236.182v-6.51q-8.5,8.294-19.235,8.3a27.4,27.4,0,0,1-21.213-9.329Q187.37,90.857,187.37,76.6c0-9.5,2.788-17.039,8.364-23.254a26.7,26.7,0,0,1,20.886-9.392q10.934,0,19.547,8.94V0ZM202.073,76.6q0,8.948,4.8,14.563a15.727,15.727,0,0,0,12.4,5.685,16.528,16.528,0,0,0,12.912-5.5q4.929-5.677,4.922-14.438T232.18,62.472a16.267,16.267,0,0,0-12.772-5.56,15.9,15.9,0,0,0-12.4,5.623,20.672,20.672,0,0,0-4.922,14.049Z" transform="translate(104.46)" fill="#4b3d60"/>
  <path id="Path_67" data-name="Path 67" d="M286.547,29.949h14.438V92.171H286.547v-6.51q-8.878,8.294-19.095,8.3a27.544,27.544,0,0,1-21.338-9.329q-8.364-9.509-8.364-23.768c0-9.5,2.788-17.1,8.364-23.316a26.99,26.99,0,0,1,20.948-9.329q10.864,0,19.485,8.94ZM252.437,60.865q0,8.948,4.8,14.563a15.726,15.726,0,0,0,12.4,5.685,16.528,16.528,0,0,0,12.912-5.5q4.93-5.677,4.922-14.438t-4.922-14.438a16.267,16.267,0,0,0-12.772-5.56,15.9,15.9,0,0,0-12.4,5.623,20.673,20.673,0,0,0-4.922,14.049Z" transform="translate(132.547 15.733)" fill="#4b3d60"/>
  <path id="Path_68" data-name="Path 68" d="M313.447,78h36.991v13.55H284.96L325.268,42.74H293.527V29.33h60.182L313.463,78Z" transform="translate(158.867 16.352)" fill="#4b3d60"/>
  <path id="Path_69" data-name="Path 69" d="M393.366,64.432H348.774c.389,5.109,2.041,9.174,4.984,12.2a15.231,15.231,0,0,0,11.307,4.47,14.719,14.719,0,0,0,8.878-2.554c2.3-1.7,4.922-4.859,7.85-9.454l12.133,6.775a47.869,47.869,0,0,1-5.934,8.208,31.65,31.65,0,0,1-6.713,5.623,27.237,27.237,0,0,1-7.725,3.224,37.485,37.485,0,0,1-9,1.028q-13.924,0-22.366-8.94-8.434-9.018-8.426-23.892c0-9.921,2.726-17.8,8.177-23.892q8.247-9.018,21.852-9c9.08,0,16.4,2.913,21.727,8.753q7.92,8.691,7.928,24.079l-.062,3.38Zm-14.75-11.759q-3.014-11.494-14.5-11.494a15.026,15.026,0,0,0-4.922.794A13.758,13.758,0,0,0,355,44.278a14.627,14.627,0,0,0-3.224,3.613,16.883,16.883,0,0,0-2.04,4.8h28.876Z" transform="translate(186.074 15.733)" fill="#4b3d60"/>
  <path id="Path_70" data-name="Path 70" d="M181.692,90.831H167.674a48.843,48.843,0,1,0-97.687,0H55.97a62.861,62.861,0,1,1,125.722,0Z" transform="translate(31.204 15.594)" fill="#4b3d60"/>
</svg>
